<svg height="1024" preserveAspectRatio="none" viewBox="0 0 1024 1024" width="1024" xmlns="http://www.w3.org/2000/svg">
<path d="m969.6 351.25q-8.6-20.85-19.4-40.85-6.1-11.35-12.9-22.4-29.35-47.55-71.55-89.8-138.25-138.25-333.8-138.25-195.5 0-333.75 138.25-138.25 138.25-138.25 333.75 0 195.55 138.25 333.8 138.25 138.2 333.75 138.2 195.55 0 333.8-138.2 76.15-76.2 110.35-169.75 27.85-76.25 27.85-164.05 0-67.35-16.4-127.95-1.85-6.85-3.9-13.6-6.15-19.95-14.05-39.15z" fill-opacity=".098039"/>\
<path d="m969.7 392q-1.75-6.85-3.65-13.6-1.52421875-5.28554687-3.2-10.55-2.47128906-7.946875-5.25-15.8-9.75-27.55-23.15-53.65-5.8-11.35-12.3-22.4-30.65-52-76.35-97.75-109-109-253.65-132.05-24.5-3.9-50.05-5.35-14.9-.85-30.1-.85-14.1 0-27.9.75-177.55 9.2-305.85 137.5-138.25 138.25-138.25 333.75 0 195.55 138.25 333.8 84.79003906 84.75703125 191.1 117.55 54.53808594 16.81308594 114.75 19.95.2 0 .4 0 12.15.6 24.5.7 1.5 0 3 0 15.25 0 30.1-.8 3.5-.2 6.95-.45 30.05-2.15 58.7-7.7 11.8-2.3 23.4-5.15 120.6-30.05 214.65-124.1 72.9-72.95 107.35-161.8 27.75-71.6 30.55-153.5.3-9.2.3-18.5 0-1 0-2 0-.5 0-1-.35-61.3-14.3-117z" fill="#956860"/>
<path d="m980.15 575.85-237.85-237.85-169.3-80h-127l-159 79-46 213 53.85 204.15 229.7 229.7q8.85-.18125 17.55-.65 3.5-.2 6.95-.45 30.05-2.15 58.7-7.7 11.8-2.3 23.4-5.15 120.6-30.05 214.65-124.1 72.9-72.95 107.35-161.8 19.93007813-51.42324219 27-108.15z" fill-opacity="0"/>
<g fill="#fff" transform="matrix(.58255005 0 0 .58255005 212.9 213.65)">
<path d="m861.45 163q-16.5-15.45-41.05-33.85-28.65-20.85-42.95-31.35-17.55-12.9-41.5-25.3-14.75-7.55-44.1-20.75-34.25-15.05-51.25-22.85-29.3-13.5-50.05-25.5-4.35-2.45-10-2.55-14.05-.4-28 4.2-12.5 4.1-25.5 12.45-2.55 1.6-4.75 4.3-3.95 4.85 1.3 7.9l10.75 6.2-.05.95q-6.7.65-7.9.7-69.45 4.5-104.15 7.15-59.25 4.65-129.25 15.9-73.3 11.75-127.05 65.2-26.65 26.5-48.75 59.75-20.1 30.3-37.25 67.4-62.1 134.45-68.85 296.65-2.25 55.2 3.45 106.25 6.15 54.85 19.5 100.3 18.45 62.6 49.55 108 49.35 72.1 135.8 114.05 42.35 20.55 90.1 32.3 44.45 10.95 94.55 14.5 51.3 3.6 104.8-1.6 66.7-6.45 129.05-25.25 69.9-21.15 128.25-53.7 61.9-34.5 111.8-82.5 63.75-61.15 96.35-136.75 36.65-84.95 41.55-184 4-79.4-16.7-153.2-36.5-130.35-137.7-225m-210-8.15q14.7 7.55 30.8 2.8 4.65-1.35 12.3-4.15 8.95-3.25 12.2-4.3 1.75-.55 3.5-.55 2.05-.05 3.35.6 7.65 3.85 23 11.5 13.15 6.65 22.6 12.2 24.15 14.25 26.4 15.65 14.85 9.2 25 17.45 90.1 73.3 119.05 190.5 14.45 58.55 10.85 121.4-6.9 121.1-69.9 227.75-49.35 83.45-122.7 136.55-63 45.55-141.25 61.45-29.2 5.95-59.65 8.85-30.05 2.85-64.1 3.05-130.05-1.7-231.05-48.85-32.2-15.1-56.95-33.4-27.6-20.4-47.5-45.95-14.45-18.6-25.8-42.1-9.75-20.15-18.1-45.95-15.05-46.3-21.4-103.4-6.3-57.45-2.8-114.75 4-64.85 16.9-121.1 14.2-61.7 39.7-115.7 25.8-54.5 62.1-91.9 33.25-34.15 80-52.3 70.5-27.5 132.7-37.6 23.75-3.85 43.15-5.4 23.05-1.85 43.4-.75 36.8 1.95 69 16.8 40 18.4 85.2 41.6z"/>
<path d="m768.9 576.8q-4.1-3.15-10.3-.65-2.05.85-4.3 3.3-1 1.05-3.6 4.5-1.25 1.6-3.45 5.45-2.1 3.7-3.5 5.45-21.5 26.8-48.8 47-38.15 28.3-83.5 42.7-42.75 13.55-92.5 14.9-46.35 1.25-93.1-9.75-42.3-10-75.85-25.9-37.65-17.85-66.85-44.25-14.7-13.3-24.35-27.6-10.65-15.75-15.7-33.4-1.3-4.8-4.1-10.15-2.2-4.1-5.05-5.65-2.75-1.5-6.65-.8-10.5 1.9-10.45 10.2.15 11.7.55 18.65.65 10.3 2.15 18.5 9.3 50.3 49.5 90.6 22.65 22.65 51.85 39.65 26.55 15.45 59.55 26.8 60.45 20.8 132.45 22.45l22.9-1.65q13.75-1 22.85-1.95 60.25-6.45 109.05-31.85 56.55-29.4 83.8-79 18.55-33.7 20.95-67.6.5-6.8-3.55-9.95z"/>
<path d="m680.85 379.8q-10.05-2.4-20.75.05-8.8 2.05-19.4 7.75-10.65 5.75-14 17.35-8.45 29 8.4 53.75 7.05 10.35 17.55 14.1 10.35 3.7 22.75.5 17.45-4.5 28.75-19.55 11.25-15 11.6-34.1-.4-4.55-.65-6.85-.45-4.05-1.7-6.25-12.2-22-32.55-26.75z"/>
<path d="m362.95 384.3q-11.85-10.9-28.05-11.8-16.55-.9-27.4 6.2-10.95 7.15-15.45 21.9-1.05 3.5-1.9 8.55-.45 2.8-1.25 7.8.25 2.5.6 6.65.3 3.4.75 5.6 3.95 19.1 18.35 29.15 14.35 10 35.8 8.7 22.95-1.4 31.7-23.4 5.45-13.6 2-31.45-3.2-17-15.15-27.9z"/>
</g>
</svg>