<svg xmlns="http://www.w3.org/2000/svg" fill="none" viewBox="-0.5 -0.5 24 24" id="Apache-Superset-Icon--Streamline-Svg-Logos.svg" height="24" width="24">
          <desc>Apache Superset Icon Streamline Icon: https://streamlinehq.com</desc>
          <path fill="#BACBA9" d="M16.973520833333335 5.910041666666666c-1.9309458333333334 0 -3.7097083333333334 1.0863427083333335 -5.428742708333333 2.984465625C9.855547916666668 6.966532291666667 8.046957291666667 5.910041666666666 6.026479166666667 5.910041666666666 2.6808895833333333 5.910041666666666 0.23958333333333334 8.297609375 0.23958333333333334 11.511883333333333c0 3.2142739583333335 2.4413062500000002 5.572013541666667 5.786895833333333 5.572013541666667 2.0562958333333334 0 3.6500041666666667 -0.9639875000000001 5.428742708333333 -2.8859729166666668 1.7190583333333334 1.9279510416666668 3.4679687500000003 2.8919385416666668 5.518298958333334 2.8919385416666668C20.319110416666668 17.083896875 22.760416666666668 14.735117708333334 22.760416666666668 11.511883333333333S20.319110416666668 5.910041666666666 16.973520833333335 5.910041666666666ZM6.050341666666666 13.711450000000001c-1.4176145833333333 0 -2.2622177083333335 -0.9341354166666667 -2.2622177083333335 -2.1697145833333336 0 -1.2355791666666667 0.844603125 -2.196571875 2.2622177083333335 -2.196571875 1.1937958333333334 0 2.1697145833333336 0.9609927083333334 3.2262291666666667 2.2562520833333335 -0.9968104166666666 1.2057270833333336 -2.0503302083333335 2.110034375 -3.2262291666666667 2.110034375Zm10.821715625000001 0c-1.1758989583333335 0 -2.1697145833333336 -0.9341354166666667 -3.2262291666666667 -2.1697145833333336 1.0863666666666667 -1.295259375 2.0205020833333336 -2.196571875 3.2262291666666667 -2.196571875 1.4176145833333333 0 2.25328125 0.9729479166666667 2.25328125 2.196571875s-0.8356666666666667 2.1697145833333336 -2.25328125 2.1697145833333336Z" stroke-width="1"></path><path fill="#BACBA9" d="m13.974081250000001 16.287018749999998 2.2503104166666668 -2.6860166666666667c-0.895346875 -0.268596875 -1.7220531250000002 -1.0744114583333333 -2.5785875000000003 -2.074216666666667l-2.19060625 2.6711145833333334c0.71716875 0.8320729166666667 1.5686479166666667 1.5381968750000001 2.5188833333333336 2.08911875Z" stroke-width="1"></path><path fill="#BACBA9" d="M11.544897916666667 8.891416666666668c-0.7124010416666667 -0.8440041666666668 -1.5584895833333334 -1.565940625 -2.50398125 -2.1368677083333334l-2.2532572916666664 2.7158687500000003c0.8565343750000001 0.29844895833333335 1.6146 1.0684458333333333 2.420390625 2.0503302083333335l0.08953229166666667 0.06267500000000001 2.247315625 -2.69200625Z" stroke-width="1"></path>
        </svg>